<svg xmlns="http://www.w3.org/2000/svg" xmlns:xlink="http://www.w3.org/1999/xlink" id="visual" viewBox="0 0 960 540" width="960" height="540" version="1.1"><rect x="0" y="0" width="960" height="540" fill="#1d99cc"/><path d="M0 63L20 61C40 59 80 55 120 64.3C160 73.7 200 96.3 240 96.2C280 96 320 73 360 73C400 73 440 96 480 97.2C520 98.3 560 77.7 600 65.5C640 53.3 680 49.7 720 57.7C760 65.7 800 85.3 840 85.2C880 85 920 65 940 55L960 45L960 0L940 0C920 0 880 0 840 0C800 0 760 0 720 0C680 0 640 0 600 0C560 0 520 0 480 0C440 0 400 0 360 0C320 0 280 0 240 0C200 0 160 0 120 0C80 0 40 0 20 0L0 0Z" fill="#d8fdfb" stroke-linecap="round" stroke-linejoin="miter"/></svg>