<svg xmlns="http://www.w3.org/2000/svg" xmlns:xlink="http://www.w3.org/1999/xlink" id="visual" viewBox="0 0 960 540" width="960" height="540" version="1.1"><rect x="0" y="0" width="960" height="540" fill="#1d99cc"/><path d="M0 86L11.5 79.7C23 73.3 46 60.7 68.8 61C91.7 61.3 114.3 74.7 137.2 80.2C160 85.7 183 83.3 205.8 71.3C228.7 59.3 251.3 37.7 274.2 30C297 22.3 320 28.7 342.8 36C365.7 43.3 388.3 51.7 411.2 53.5C434 55.3 457 50.7 480 48.8C503 47 526 48 548.8 45C571.7 42 594.3 35 617.2 32.5C640 30 663 32 685.8 39.8C708.7 47.7 731.3 61.3 754.2 68.7C777 76 800 77 822.8 73.3C845.7 69.7 868.3 61.3 891.2 60.8C914 60.3 937 67.7 948.5 71.3L960 75L960 0L948.5 0C937 0 914 0 891.2 0C868.3 0 845.7 0 822.8 0C800 0 777 0 754.2 0C731.3 0 708.7 0 685.8 0C663 0 640 0 617.2 0C594.3 0 571.7 0 548.8 0C526 0 503 0 480 0C457 0 434 0 411.2 0C388.3 0 365.7 0 342.8 0C320 0 297 0 274.2 0C251.3 0 228.7 0 205.8 0C183 0 160 0 137.2 0C114.3 0 91.7 0 68.8 0C46 0 23 0 11.5 0L0 0Z" fill="#d8fdfb" stroke-linecap="round" stroke-linejoin="miter"/></svg>